<svg width="248" height="248" viewBox="0 0 248 248" fill="none" xmlns="http://www.w3.org/2000/svg">
<path fill-rule="evenodd" clip-rule="evenodd" d="M207.195 213.083C185.364 233.546 156.009 246.076 123.726 246.076C56.3052 246.076 1.64968 191.421 1.64968 124C1.64968 56.5791 56.3052 1.92361 123.726 1.92361C191.147 1.92361 245.803 56.5791 245.803 124C245.803 149.017 238.278 172.276 225.368 191.637H227.345C240.06 172.198 247.452 148.962 247.452 124C247.452 55.668 192.058 0.273926 123.726 0.273926C55.3941 0.273926 0 55.668 0 124C0 192.332 55.3941 247.726 123.726 247.726C157.073 247.726 187.339 234.534 209.589 213.083H207.195Z" fill="url(#paint0_angular_20_719)"/>
<path d="M108.928 195.793L108.415 199.101H111.495L112.008 195.793H108.928ZM112.027 205.338H110.506L111.266 200.47H108.205L107.445 205.338H106L107.711 194.443H113.738L112.027 205.338Z" fill="#FFFBEE"/>
<path d="M116.989 203.912H120.069L120.316 202.296L115.963 201.25L116.685 196.763H122.712L122.237 199.881H120.792L121.039 198.189H117.959L117.712 199.881L122.008 200.927L121.305 205.318L115.316 205.338L115.677 203.189H117.103L116.989 203.912Z" fill="#FFFBEE"/>
<path d="M126.248 205.338L125.564 209.615H124.138L126.153 196.763H132.199L130.849 205.338H126.248ZM127.389 198.17L126.476 203.969H129.537L130.45 198.189L127.389 198.17Z" fill="#FFFBEE"/>
<path d="M134.614 196.782L136.059 196.763L134.709 205.338H133.283L134.614 196.782ZM135.298 192.485H136.743L136.344 195.014H134.918L135.298 192.485Z" fill="#FFFBEE"/>
<path d="M142.903 198.17L140.793 198.189L139.671 205.338H138.15L139.519 196.763H144.576L144.082 199.881H142.656L142.903 198.17Z" fill="#FFFBEE"/>
<path d="M146.934 196.782L148.379 196.763L147.029 205.338H145.603L146.934 196.782ZM147.618 192.485H149.063L148.664 195.014H147.238L147.618 192.485Z" fill="#FFFBEE"/>
<path d="M156.516 205.338H154.995L156.136 198.132H153.056L151.915 205.338H150.47L151.839 196.763H157.866L156.516 205.338Z" fill="#FFFBEE"/>
<path d="M164.406 205.338H159.919L161.288 196.763H167.296L165.376 208.836H159.349L159.558 207.486H164.083L164.406 205.338ZM164.634 203.931L165.547 198.17H162.486L161.554 203.931H164.634Z" fill="#FFFBEE"/>
<path d="M175.185 194.443H176.649L174.462 208.265H171.059L171.268 206.859H173.207L175.185 194.443Z" fill="#FFFBEE"/>
<path d="M184.786 196.763L183.436 205.338H177.39L178.759 196.763H180.204L179.044 203.969H182.124L183.265 196.763H184.786Z" fill="#FFFBEE"/>
<path d="M192.581 205.338H191.06L192.201 198.132H189.121L187.98 205.338H186.535L187.904 196.763H193.931L192.581 205.338Z" fill="#FFFBEE"/>
<path d="M196.688 196.782L198.133 196.763L196.783 205.338H195.357L196.688 196.782ZM197.372 192.485H198.817L198.418 195.014H196.992L197.372 192.485Z" fill="#FFFBEE"/>
<path d="M200.224 205.338L201.593 196.763H207.62L206.27 205.338H200.224ZM205.947 198.17L202.867 198.189L201.954 203.969H205.034L205.947 198.17Z" fill="#FFFBEE"/>
<path d="M214.122 198.17L212.012 198.189L210.89 205.338H209.369L210.738 196.763H215.795L215.301 199.881H213.875L214.122 198.17Z" fill="#FFFBEE"/>
<path d="M220.732 203.855H223.223L223.679 203.398L224.801 196.383L224.497 195.812H221.987L220.732 203.855ZM219.059 205.338L220.77 194.443H225.048L226.417 196.972L225.466 202.999L223.147 205.338H219.059Z" fill="#FFFBEE"/>
<path d="M230.467 201.839L230.105 203.969H234.63L234.421 205.338H228.375L229.744 196.763H235.733L234.934 201.839H230.467ZM230.676 200.432H233.756L234.098 198.17H231.018L230.676 200.432Z" fill="#FFFBEE"/>
<path d="M245.315 196.763L241.608 205.338H238.889L237.919 196.763H239.859L240.258 203.969H240.809L243.509 196.763H245.315Z" fill="#FFFBEE"/>
<path d="M109 184.345V144.138H110.608L140.132 182.048H139.155V144.138H141.108V184.345H139.5L109.976 146.436H110.953V184.345H109Z" fill="white"/>
<path d="M173.607 144.138H175.56V184.345H173.607V144.138ZM145.405 184.345H143.452V144.138H145.405V184.345ZM173.952 164.816H145.06V163.036H173.952V164.816Z" fill="white"/>
<path d="M191.632 184.345L177.904 144.138H179.972L193.182 183.024H192.148L205.761 144.138H207.657L221.212 183.024H220.236L233.504 144.138H235.457L221.729 184.345H219.776L206.451 146.206H206.91L193.642 184.345H191.632Z" fill="white"/>
<defs>
<radialGradient id="paint0_angular_20_719" cx="0" cy="0" r="1" gradientUnits="userSpaceOnUse" gradientTransform="translate(124 124) rotate(72.9841) scale(121.311)">
<stop offset="0.234375" stop-color="#FF47DA"/>
<stop offset="0.573225" stop-color="#FF7F00"/>
<stop offset="0.90625" stop-color="#FF0000" stop-opacity="0"/>
</radialGradient>
</defs>
</svg>
