<svg width="32" height="32" viewBox="0 0 32 32" fill="none" xmlns="http://www.w3.org/2000/svg">
<ellipse cx="16" cy="15.9997" rx="15.2581" ry="15.2581" transform="rotate(-2.85832 16 15.9997)" stroke="url(#paint0_linear_157_40)" stroke-width="1.44801"/>
<path d="M13.87 21.3574L13.8459 18.9245V14.3477H14.4481V22.3691H13.6532C12.1196 18.4828 11.2042 16.1543 10.9071 15.3835C10.9071 15.3835 10.9151 16.1944 10.9312 17.8164V22.3691H10.341V14.3477H11.1239C12.8583 18.7639 13.7736 21.1005 13.87 21.3574Z" fill="white"/>
<path d="M19.8842 14.3477H20.4984V22.3691H19.8842V18.7077H17.0658V22.3691H16.4636V14.3477H17.0658V18.1657H19.8842V14.3477Z" fill="white"/>
<path d="M28.6403 14.3477H29.2666L27.8695 22.3691H27.0023C26.3359 18.531 25.9585 16.1744 25.8702 15.2992C25.7899 16.1744 25.6614 17.1178 25.4847 18.1295L24.75 22.3691H23.8829L22.4857 14.3477H23.112L24.0033 19.7194L24.3164 21.8271C24.4048 21.1205 24.5092 20.4139 24.6296 19.7073L25.5209 14.3477H26.2315L27.1228 19.7194L27.4359 21.8271C27.5724 20.8796 27.9739 18.3865 28.6403 14.3477Z" fill="white"/>
<path d="M10.4763 23.8992H10.8711L10.2815 27.6267H9.36373L9.42013 27.2473H9.94311L10.4763 23.8992Z" fill="white"/>
<path d="M13.0656 24.5247L12.7016 26.8371H11.0711L11.4403 24.5247H11.8299L11.5172 26.4679H12.3478L12.6554 24.5247H13.0656Z" fill="white"/>
<path d="M15.1678 26.8371H14.7576L15.0652 24.8939H14.2346L13.927 26.8371H13.5373L13.9065 24.5247H15.5318L15.1678 26.8371Z" fill="white"/>
<path d="M16.2753 24.5299L16.6649 24.5247L16.3009 26.8371H15.9163L16.2753 24.5299ZM16.4598 23.3711H16.8495L16.7418 24.053H16.3573L16.4598 23.3711Z" fill="white"/>
<path d="M17.2289 26.8371L17.5981 24.5247H19.2234L18.8594 26.8371H17.2289ZM18.7722 24.9041L17.9416 24.9093L17.6955 26.4679H18.5261L18.7722 24.9041Z" fill="white"/>
<path d="M20.9769 24.9041L20.4078 24.9093L20.1053 26.8371H19.6951L20.0643 24.5247H21.4281L21.2948 25.3656H20.9103L20.9769 24.9041Z" fill="white"/>
<path d="M23.3782 26.3466H24.0498L24.1729 26.2235L24.4754 24.3316L24.3933 24.1778H23.7166L23.3782 26.3466ZM22.927 26.7465L23.3884 23.8086H24.542L24.9112 24.4905L24.6548 26.1159L24.0293 26.7465H22.927Z" fill="white"/>
<path d="M26.0033 25.8031L25.9059 26.3773H27.1262L27.0698 26.7465H25.4393L25.8085 24.4341H27.4235L27.2082 25.8031H26.0033ZM26.0597 25.4237H26.8903L26.9826 24.8135H26.152L26.0597 25.4237Z" fill="white"/>
<path d="M30.0077 24.4341L29.0079 26.7465H28.2747L28.0132 24.4341H28.5362L28.6438 26.3773H28.7925L29.5206 24.4341H30.0077Z" fill="white"/>
<defs>
<linearGradient id="paint0_linear_157_40" x1="6.6756" y1="4.55616" x2="25.3244" y2="27.0195" gradientUnits="userSpaceOnUse">
<stop offset="0.635417" stop-color="#BE1B7D"/>
<stop offset="1" stop-opacity="0"/>
</linearGradient>
</defs>
</svg>
